<?xml version="1.0" encoding="UTF-8"?>
<svg version="1.1" xmlns="http://www.w3.org/2000/svg" width="284" height="133">
<path d="M0 0 C3.47735301 1.42665456 5.02226825 3.03340237 7.09375 6.140625 C7.92712891 7.37619141 7.92712891 7.37619141 8.77734375 8.63671875 C9.34582031 9.49910156 9.91429687 10.36148437 10.5 11.25 C11.06847656 12.09691406 11.63695312 12.94382812 12.22265625 13.81640625 C13.32564525 15.46193277 14.42350459 17.11091198 15.515625 18.76367188 C16.43093244 20.14265479 17.35602415 21.51526988 18.296875 22.87695312 C21 26.79362896 21 26.79362896 21 29 C19.603522 28.54363464 18.2078492 28.08480512 16.8125 27.625 C15.64654297 27.24214844 15.64654297 27.24214844 14.45703125 26.8515625 C11.93621143 25.97789204 9.47374919 24.99814789 7 24 C6.99635437 24.7213916 6.99270874 25.4427832 6.98895264 26.18603516 C6.95095557 33.0120807 6.89397079 39.83773761 6.81609726 46.66343689 C6.77672684 50.17196416 6.74448793 53.6802444 6.72900391 57.18896484 C6.71084656 61.23054558 6.66085047 65.27120524 6.609375 69.3125 C6.60814636 70.5617627 6.60691772 71.81102539 6.60565186 73.09814453 C6.46174526 81.71431322 5.25619421 87.0397638 -0.3125 93.8125 C-6.51084783 98.85766684 -11.82341462 99.62397934 -19.70703125 99.40625 C-25.69877326 98.66705526 -30.74192426 96.68048714 -34.69140625 91.9921875 C-39.30382114 84.86988302 -39.18625927 78.30862205 -39.18530273 70.06616211 C-39.18749567 67.9416927 -39.20568341 65.81773739 -39.22460938 63.69335938 C-39.22754228 62.34635594 -39.22952776 60.99935005 -39.23046875 59.65234375 C-39.23457764 58.42507568 -39.23868652 57.19780762 -39.24291992 55.93334961 C-39 53 -39 53 -37 51 C-33.4375 51.25 -33.4375 51.25 -30 52 C-28.6198111 54.7603778 -28.83699555 57.0585666 -28.7890625 60.14453125 C-28.76070312 61.37880859 -28.73234375 62.61308594 -28.703125 63.88476562 C-28.65127754 66.49139677 -28.60693714 69.09818865 -28.5703125 71.70507812 C-28.539375 72.94322266 -28.5084375 74.18136719 -28.4765625 75.45703125 C-28.45674316 76.59116455 -28.43692383 77.72529785 -28.41650391 78.89379883 C-27.95329507 82.34831586 -27.07683776 84.22364412 -25 87 C-20.54757426 89.96828383 -16.22223487 89.63369224 -11 89 C-7.38308725 86.90219061 -6.31708591 85.95125774 -5 82 C-4.88356421 80.11408604 -4.82336539 78.22449218 -4.79467773 76.33520508 C-4.77473251 75.17422806 -4.75478729 74.01325104 -4.73423767 72.8170929 C-4.71752518 71.56389755 -4.70081268 70.31070221 -4.68359375 69.01953125 C-4.66281265 67.73640549 -4.64203156 66.45327972 -4.62062073 65.13127136 C-4.56548094 61.72337185 -4.51603611 58.31541259 -4.46777344 54.90740967 C-4.41749921 51.42845352 -4.36184409 47.94958393 -4.30664062 44.47070312 C-4.19915811 37.64721049 -4.09769123 30.82363964 -4 24 C-4.91523437 24.3609375 -5.83046875 24.721875 -6.7734375 25.09375 C-8.55621094 25.78984375 -8.55621094 25.78984375 -10.375 26.5 C-11.55835937 26.9640625 -12.74171875 27.428125 -13.9609375 27.90625 C-17 29 -17 29 -19 29 C-17.35597641 23.89646663 -14.29295623 19.92081854 -11.1875 15.625 C-10.66607422 14.89539062 -10.14464844 14.16578125 -9.60742188 13.4140625 C-8.0760506 11.27281927 -6.53816388 9.13636644 -5 7 C-3.33153436 4.66794624 -1.66579614 2.33396206 0 0 Z " fill="#2D226A" transform="translate(82,0)"/>
<path d="M0 0 C2.375 0.6875 2.375 0.6875 3.375 1.6875 C3.60692865 3.20219448 3.78715238 4.72504562 3.9375 6.25 C4.02128906 7.07628906 4.10507813 7.90257812 4.19140625 8.75390625 C4.25199219 9.39199219 4.31257812 10.03007813 4.375 10.6875 C6.025 10.3575 7.675 10.0275 9.375 9.6875 C13.08710769 13.93599023 15.56173495 18.51958436 18.125 23.5 C18.53621094 24.28826172 18.94742188 25.07652344 19.37109375 25.88867188 C20.37725178 27.81909136 21.37679969 29.75295367 22.375 31.6875 C24.49617136 29.1677646 26.00503249 26.54691002 27.4609375 23.61328125 C27.83476562 22.86369141 28.20859375 22.11410156 28.59375 21.34179688 C29.36772289 19.7742403 30.13069137 18.20120448 30.8828125 16.62304688 C33.75073451 10.94122194 33.75073451 10.94122194 37.046875 9.6015625 C39.375 9.6875 39.375 9.6875 41.25 10.75 C42.96578972 13.70497119 42.17988552 15.3803434 41.375 18.6875 C40.08491153 21.84257061 38.57407113 24.87385517 37.04296875 27.91796875 C36.60994949 28.79020584 36.17693024 29.66244293 35.73078918 30.56111145 C34.81598536 32.39780263 33.8970896 34.23246073 32.97436523 36.06518555 C31.56518157 38.86966329 30.17548228 41.6832197 28.78710938 44.49804688 C27.89439075 46.28443512 27.00054838 48.07026233 26.10546875 49.85546875 C25.69177536 50.69611374 25.27808197 51.53675873 24.85185242 52.40287781 C24.25652458 53.57473381 24.25652458 53.57473381 23.64916992 54.77026367 C23.30577072 55.45610031 22.96237152 56.14193695 22.60856628 56.84855652 C21.12378837 59.06199467 19.65423016 60.31488035 17.375 61.6875 C14.6875 61.125 14.6875 61.125 12.375 59.6875 C11.57421875 57.90625 11.57421875 57.90625 11.375 55.6875 C12.50297725 53.05982573 13.90781692 50.69353046 15.34375 48.22265625 C16.61079361 45.1078407 16.24561479 43.89872125 15.375 40.6875 C14.59982487 38.96546891 13.76031206 37.27147546 12.87109375 35.60546875 C12.37802734 34.67412109 11.88496094 33.74277344 11.37695312 32.78320312 C10.86068359 31.82349609 10.34441406 30.86378906 9.8125 29.875 C9.29236328 28.89595703 8.77222656 27.91691406 8.23632812 26.90820312 C6.95490832 24.4981934 5.66765289 22.09149781 4.375 19.6875 C4.36041748 20.45940674 4.34583496 21.23131348 4.33081055 22.02661133 C4.25641967 25.51825093 4.1597291 29.0089249 4.0625 32.5 C4.02866211 34.32241211 4.02866211 34.32241211 3.99414062 36.18164062 C3.95869141 37.34501953 3.92324219 38.50839844 3.88671875 39.70703125 C3.86053467 40.78057861 3.83435059 41.85412598 3.80737305 42.96020508 C3.375 45.6875 3.375 45.6875 2.00708008 47.5769043 C0.375 48.6875 0.375 48.6875 -2.25 48.4375 C-4.625 47.6875 -4.625 47.6875 -5.625 46.6875 C-5.7334013 45.28644498 -5.77400561 43.88004352 -5.78613281 42.47485352 C-5.79574036 41.58045059 -5.8053479 40.68604767 -5.81524658 39.76454163 C-5.81949646 38.79165695 -5.82374634 37.81877228 -5.828125 36.81640625 C-5.83382507 35.82374252 -5.83952515 34.8310788 -5.84539795 33.80833435 C-5.85486312 31.70418367 -5.86138792 29.60001806 -5.86523438 27.49584961 C-5.87494839 24.26715423 -5.90596112 21.03909289 -5.9375 17.81054688 C-5.94402877 15.77083713 -5.94927974 13.73112282 -5.953125 11.69140625 C-5.9654718 10.72054581 -5.9778186 9.74968536 -5.99053955 8.74940491 C-5.9860379 7.40307228 -5.9860379 7.40307228 -5.98144531 6.02954102 C-5.98509094 5.23757828 -5.98873657 4.44561554 -5.99249268 3.62965393 C-5.87122009 2.98874313 -5.74994751 2.34783234 -5.625 1.6875 C-2.625 -0.3125 -2.625 -0.3125 0 0 Z " fill="#2C2369" transform="translate(184.625,50.3125)"/>
<path d="M0 0 C0.9590625 0.3403125 0.9590625 0.3403125 1.9375 0.6875 C4.99020463 0.84561388 4.99020463 0.84561388 7.9375 -0.3125 C13.50295491 -0.80238853 18.34430952 -1.08064541 23.4375 1.375 C28.01655676 5.6106275 31.53071968 9.56260486 32.16015625 15.9453125 C32.39027086 22.48857141 31.87763194 28.49714406 27.28515625 33.48046875 C23.02513578 37.27215716 19.8511359 38.83101341 14.0625 38.875 C13.21945313 38.88917969 12.37640625 38.90335938 11.5078125 38.91796875 C8.66869816 38.66339771 6.5221704 37.85940253 3.9375 36.6875 C3.97230469 37.44675781 4.00710937 38.20601562 4.04296875 38.98828125 C4.07003906 39.98214844 4.09710938 40.97601563 4.125 42 C4.15980469 42.98613281 4.19460937 43.97226563 4.23046875 44.98828125 C3.9375 47.6875 3.9375 47.6875 2.5859375 49.5546875 C0.9375 50.6875 0.9375 50.6875 -1.625 50.5 C-4.0625 49.6875 -4.0625 49.6875 -6.0625 47.6875 C-6.32992554 45.75880432 -6.32992554 45.75880432 -6.35302734 43.37719727 C-6.36578705 42.48609756 -6.37854675 41.59499786 -6.39169312 40.67689514 C-6.39391876 39.71230881 -6.39614441 38.74772247 -6.3984375 37.75390625 C-6.4050943 36.76502914 -6.4117511 35.77615204 -6.41860962 34.75730896 C-6.42874671 32.66333887 -6.43342631 30.5693364 -6.43310547 28.4753418 C-6.43747789 25.26622458 -6.47378473 22.05848298 -6.51171875 18.84960938 C-6.51758674 16.81771305 -6.52155625 14.78581018 -6.5234375 12.75390625 C-6.53780853 11.79134415 -6.55217957 10.82878204 -6.56698608 9.83705139 C-6.56083282 8.94279953 -6.55467957 8.04854767 -6.54833984 7.12719727 C-6.55118988 6.34047134 -6.55403992 5.55374542 -6.55697632 4.74317932 C-6.0625 2.6875 -6.0625 2.6875 -4.16104126 0.89048767 C-2.0625 -0.3125 -2.0625 -0.3125 0 0 Z M3.9375 11.6875 C3.06252985 15.30031282 3.06252985 15.30031282 3.3125 19.25 C3.30605469 19.92224609 3.29960937 20.59449219 3.29296875 21.28710938 C3.36215793 24.45408663 3.52474589 26.24866774 5.73046875 28.59375 C9.13138825 30.27916143 12.13981873 30.91400187 15.9375 30.6875 C18.93971119 29.1863944 20.36303723 27.95736506 21.75390625 24.8828125 C23.25780737 20.02114474 23.03263184 16.42431981 20.9375 11.6875 C18.32878996 8.86139745 16.79308419 7.83313135 13 7.1875 C9.00909416 7.83907646 7.00854872 9.05457071 3.9375 11.6875 Z " fill="#271E5C" transform="translate(143.0625,60.3125)"/>
<path d="M0 0 C0.68964844 0.13664062 1.37929687 0.27328125 2.08984375 0.4140625 C5.80109753 1.39464444 5.80109753 1.39464444 8.02734375 0.0390625 C14.47335943 -0.46272315 20.61221034 -0.92323024 26.02734375 3.0390625 C30.75215011 7.76386886 32.92242821 11.91649903 33.09375 18.6484375 C32.76047393 25.96031242 30.98972293 31.39656289 25.52734375 36.41796875 C20.56986145 39.83815486 14.84645374 39.80543839 9.02734375 39.0390625 C6.6953125 38.015625 6.6953125 38.015625 5.02734375 37.0390625 C4.97835937 37.88210937 4.929375 38.72515625 4.87890625 39.59375 C4.80414063 40.68945312 4.729375 41.78515625 4.65234375 42.9140625 C4.58273438 44.00460938 4.513125 45.09515625 4.44140625 46.21875 C4.02734375 49.0390625 4.02734375 49.0390625 2.02734375 51.0390625 C-3.54083807 50.47088068 -3.54083807 50.47088068 -4.97265625 49.0390625 C-5.08115258 47.61264938 -5.12166951 46.18097035 -5.13378906 44.75048828 C-5.14339661 43.8392923 -5.15300415 42.92809631 -5.16290283 41.98928833 C-5.16715271 40.99766693 -5.17140259 40.00604553 -5.17578125 38.984375 C-5.18433136 37.46564285 -5.18433136 37.46564285 -5.1930542 35.91622925 C-5.20252042 33.76919607 -5.20904459 31.62214826 -5.21289062 29.47509766 C-5.2225946 26.18496413 -5.25360235 22.89545544 -5.28515625 19.60546875 C-5.29168606 17.52344123 -5.29693662 15.44140921 -5.30078125 13.359375 C-5.31312805 12.37180206 -5.32547485 11.38422913 -5.3381958 10.36672974 C-5.3351947 9.44922943 -5.3321936 8.53172913 -5.32910156 7.58642578 C-5.33274719 6.77891876 -5.33639282 5.97141174 -5.34014893 5.13943481 C-4.78390664 1.96028058 -3.32161848 0.06577462 0 0 Z M4.02734375 13.0390625 C3.59195269 16.02541312 3.59195269 16.02541312 3.58984375 19.4140625 C3.54988281 20.55617188 3.50992188 21.69828125 3.46875 22.875 C3.74808017 26.19794318 3.74808017 26.19794318 6.3359375 28.39453125 C9.70345064 30.45218442 12.08626206 30.96868604 16.02734375 31.0390625 C19.89028926 29.40804106 21.46643667 27.86535685 23.02734375 24.0390625 C23.61651486 19.76183325 23.47273857 16.08574032 21.77734375 12.1015625 C19.26140866 9.13635329 17.4254624 8.21830848 13.58984375 7.7265625 C9.50202016 8.22507757 6.89132329 10.17508296 4.02734375 13.0390625 Z " fill="#2B2166" transform="translate(99.97265625,59.9609375)"/>
<path d="M0 0 C0.61875 0.268125 1.2375 0.53625 1.875 0.8125 C2.205 1.8025 2.535 2.7925 2.875 3.8125 C3.49375 3.4825 4.1125 3.1525 4.75 2.8125 C9.35248787 1.33970388 15.42416655 0.58708328 19.875 2.8125 C19.215 4.1325 18.555 5.4525 17.875 6.8125 C15.54166667 6.8125 13.20833333 6.8125 10.875 6.8125 C9.27088754 8.16655861 9.27088754 8.16655861 7.875 9.8125 C6.885 10.4725 5.895 11.1325 4.875 11.8125 C4.32522789 14.79409519 4.32522789 14.79409519 4.25 18.1875 C3.90953427 25.36970562 3.90953427 25.36970562 2.875 28.8125 C7.1255466 30.67211414 11.37433525 31.74454565 15.875 32.8125 C15.215 34.1325 14.555 35.4525 13.875 36.8125 C9.42629785 37.20503254 6.73256507 35.96555957 2.875 33.8125 C2.89820313 34.72773437 2.92140625 35.64296875 2.9453125 36.5859375 C2.97238281 38.36871094 2.97238281 38.36871094 3 40.1875 C3.02320313 41.37085938 3.04640625 42.55421875 3.0703125 43.7734375 C2.875 46.8125 2.875 46.8125 0.875 48.8125 C-3.68055556 48.25694444 -3.68055556 48.25694444 -5.125 46.8125 C-5.2334013 45.41144498 -5.27400561 44.00504352 -5.28613281 42.59985352 C-5.29574036 41.70545059 -5.3053479 40.81104767 -5.31524658 39.88954163 C-5.31949646 38.91665695 -5.32374634 37.94377228 -5.328125 36.94140625 C-5.33382507 35.94874252 -5.33952515 34.9560788 -5.34539795 33.93333435 C-5.35486312 31.82918367 -5.36138792 29.72501806 -5.36523438 27.62084961 C-5.37494839 24.39215423 -5.40596112 21.16409289 -5.4375 17.93554688 C-5.44402877 15.89583713 -5.44927974 13.85612282 -5.453125 11.81640625 C-5.4654718 10.84554581 -5.4778186 9.87468536 -5.49053955 8.87440491 C-5.4860379 7.52807228 -5.4860379 7.52807228 -5.48144531 6.15454102 C-5.48509094 5.36257828 -5.48873657 4.57061554 -5.49249268 3.75465393 C-5.37122009 3.11374313 -5.24994751 2.47283234 -5.125 1.8125 C-2.125 -0.1875 -2.125 -0.1875 0 0 Z " fill="#2C2268" transform="translate(143.125,60.1875)"/>
<path d="M0 0 C1.61032104 0.0942627 1.61032104 0.0942627 3.25317383 0.19042969 C4.41655273 0.2484375 5.57993164 0.30644531 6.77856445 0.36621094 C7.99350586 0.44742188 9.20844727 0.52863281 10.46020508 0.61230469 C11.68674805 0.67804687 12.91329102 0.74378906 14.17700195 0.81152344 C17.21043092 0.9767686 20.24148421 1.16108806 23.27270508 1.36230469 C24.94359027 4.70407507 24.12978902 8.40318578 23.89770508 12.04980469 C23.85387695 12.84064453 23.81004883 13.63148437 23.76489258 14.44628906 C23.48619729 19.13378898 23.00537952 23.72410292 22.27270508 28.36230469 C19.52270508 29.54980469 19.52270508 29.54980469 16.27270508 30.36230469 C14.05395508 29.42480469 14.05395508 29.42480469 12.27270508 27.36230469 C12.14152966 24.4675018 12.20952454 22.02077065 12.52270508 19.17480469 C12.58844727 18.42521484 12.65418945 17.675625 12.72192383 16.90332031 C12.88678244 15.05454868 13.07729324 13.20809696 13.27270508 11.36230469 C12.55985352 11.38550781 11.84700195 11.40871094 11.11254883 11.43261719 C5.38910113 11.54046142 0.67431694 11.28287779 -4.72729492 9.36230469 C-5.62313071 6.43047847 -6.04661239 4.98586484 -4.62060547 2.20117188 C-2.72729492 0.36230469 -2.72729492 0.36230469 0 0 Z " fill="#18C897" transform="translate(229.727294921875,36.6376953125)"/>
<path d="M0 0 C8.06797851 0.01634849 16.00881705 0.29498662 24.04296875 1.1328125 C24.41500041 24.07476501 24.41500041 24.07476501 21.04296875 29.1328125 C18.04296875 29.4453125 18.04296875 29.4453125 15.04296875 29.1328125 C13.04296875 27.1328125 13.04296875 27.1328125 12.8125 24.48828125 C12.82667969 23.44285156 12.84085937 22.39742187 12.85546875 21.3203125 C12.86191406 20.28261719 12.86835938 19.24492188 12.875 18.17578125 C13.02867589 15.39174597 13.41634823 12.84482613 14.04296875 10.1328125 C12.92277344 10.16761719 11.80257813 10.20242187 10.6484375 10.23828125 C9.17579624 10.26642089 7.70313877 10.29372087 6.23046875 10.3203125 C5.12348633 10.35801758 5.12348633 10.35801758 3.99414062 10.39648438 C-1.43741009 10.47021583 -1.43741009 10.47021583 -3.984375 8.81640625 C-5.53810064 6.12702573 -4.71216084 4.02747592 -3.95703125 1.1328125 C-2.95703125 0.1328125 -2.95703125 0.1328125 0 0 Z " fill="#C96DE2" transform="translate(246.95703125,19.8671875)"/>
<path d="M0 0 C2.46728516 1.14428711 2.46728516 1.14428711 5 3 C5.58349609 5.60375977 5.58349609 5.60375977 5.5234375 8.69140625 C5.51183594 9.80064453 5.50023437 10.90988281 5.48828125 12.05273438 C5.45089844 13.21095703 5.41351563 14.36917969 5.375 15.5625 C5.35373047 17.30563477 5.35373047 17.30563477 5.33203125 19.08398438 C5.18280967 27.63438065 5.18280967 27.63438065 4 30 C4.99 30 5.98 30 7 30 C7.66 33.3 8.32 36.6 9 40 C7.68 40.66 6.36 41.32 5 42 C-0.80218884 35.72736341 -3.2243218 30.21391622 -3.14453125 21.6015625 C-3.05100609 19.27528874 -2.93993169 16.94966293 -2.8125 14.625 C-2.76802734 13.43777344 -2.72355469 12.25054687 -2.67773438 11.02734375 C-2.27347953 2.27347953 -2.27347953 2.27347953 0 0 Z " fill="#2D2369" transform="translate(47,52)"/>
<path d="M0 0 C3.5625 0.25 3.5625 0.25 7 1 C8.40912096 3.81824192 8.11183553 6.17251282 8.09765625 9.3203125 C8.09443359 10.57714844 8.09121094 11.83398438 8.08789062 13.12890625 C8.07951172 14.44761719 8.07113281 15.76632813 8.0625 17.125 C8.05748489 18.46484211 8.05292201 19.804686 8.04882812 21.14453125 C8.03701086 24.42973206 8.02053617 27.71484397 8 31 C7.34 31 6.68 31 6 31 C6 22.09 6 13.18 6 4 C4.68 3.34 3.36 2.68 2 2 C-0.72836185 4.72836185 0.30907031 12.26568075 0.125 15.9375 C0.03992187 17.13697266 -0.04515625 18.33644531 -0.1328125 19.57226562 C-0.50522874 27.32952653 0.04655336 33.71680719 5 40 C7.06726444 41.27435119 7.06726444 41.27435119 9 42 C9.98120464 38.94736336 9.98120464 37.05263664 9 34 C10.98 35.32 12.96 36.64 15 38 C14.67 40.31 14.34 42.62 14 45 C20.850352 46.05038731 26.22845977 46.74789845 32.37890625 43.203125 C35.21130097 41.10101037 36.79681103 39.79428416 37.6875 36.3125 C37.790625 35.549375 37.89375 34.78625 38 34 C38.66 34 39.32 34 40 34 C40.495 33.01 40.495 33.01 41 32 C42 35 42 35 41.35546875 36.8671875 C37.83608345 42.91723447 33.72611522 46.00775392 27 48 C19.38887688 49.13793753 12.83063416 48.46458855 6.09765625 44.6328125 C1.82403614 41.30623297 -0.3162669 37.0511993 -2 32 C-2.20437822 27.69088279 -2.1858033 23.37952897 -2.18530273 19.06616211 C-2.18749567 16.9416927 -2.20568341 14.81773739 -2.22460938 12.69335938 C-2.22754228 11.34635594 -2.22952776 9.99935005 -2.23046875 8.65234375 C-2.23457764 7.42507568 -2.23868652 6.19780762 -2.24291992 4.93334961 C-2 2 -2 2 0 0 Z " fill="#221B50" transform="translate(45,51)"/>
<path d="M0 0 C3 1 3 1 4.09765625 3.07421875 C4.41605469 3.93660156 4.73445312 4.79898438 5.0625 5.6875 C5.39894531 6.58984375 5.73539063 7.4921875 6.08203125 8.421875 C6.38496094 9.27265625 6.68789062 10.1234375 7 11 C7.61875 12.7015625 7.61875 12.7015625 8.25 14.4375 C9 17 9 17 9 20 C9.639375 20.2475 10.27875 20.495 10.9375 20.75 C13 22 13 22 13.75 24.125 C13.87375 25.053125 13.87375 25.053125 14 26 C14.61875 25.835 15.2375 25.67 15.875 25.5 C18 25 18 25 20 25 C21.6446674 22.53673288 21.6446674 22.53673288 23 20 C23.66 20.66 24.32 21.32 25 22 C23.90014741 24.84020758 22.73354935 27.48714865 21 30 C17.3163384 31.27800504 15.68946056 31.22982019 12 30 C11.67 30.66 11.34 31.32 11 32 C10.01 31.67 9.02 31.34 8 31 C7.5857924 29.20510039 7.17844678 27.40841115 6.80078125 25.60546875 C5.1874912 20.3563738 1.90247281 12.90247281 -2 9 C-2.26293056 4.96839809 -2.29404844 3.44107266 0 0 Z " fill="#2D236A" transform="translate(192,60)"/>
<path d="M0 0 C3.78472282 3.44869603 6.45287906 7.38053159 9.25 11.625 C9.70890625 12.305625 10.1678125 12.98625 10.640625 13.6875 C14 18.74655878 14 18.74655878 14 21 C12.603522 20.54363464 11.2078492 20.08480512 9.8125 19.625 C8.64654297 19.24214844 8.64654297 19.24214844 7.45703125 18.8515625 C4.94255032 17.98008898 2.47087874 16.9883515 0 16 C-0.33 35.47 -0.66 54.94 -1 75 C-3.27121709 71.59317436 -3.24468887 70.42202816 -3.22705078 66.42700195 C-3.22689972 65.28604568 -3.22674866 64.14508942 -3.22659302 62.96955872 C-3.21627045 61.73823715 -3.20594788 60.50691559 -3.1953125 59.23828125 C-3.1924826 57.97735153 -3.18965271 56.71642181 -3.18673706 55.4172821 C-3.17743125 52.06839578 -3.15946703 48.71978209 -3.1373291 45.37097168 C-3.11685386 41.95241653 -3.10773176 38.5338332 -3.09765625 35.11523438 C-3.0755818 28.41008081 -3.04209362 21.70505615 -3 15 C0.71875 12.953125 0.71875 12.953125 3.25 13.375 C3.8275 13.58125 4.405 13.7875 5 14 C5 14.66 5 15.32 5 16 C6.32 16 7.64 16 9 16 C8.46375 15.38125 7.9275 14.7625 7.375 14.125 C4.21146112 9.96244885 1.62898169 5.51308523 -1 1 C-0.67 0.67 -0.34 0.34 0 0 Z " fill="#231B56" transform="translate(89,8)"/>
<path d="M0 0 C0.68964844 0.13664062 1.37929687 0.27328125 2.08984375 0.4140625 C5.80109753 1.39464444 5.80109753 1.39464444 8.02734375 0.0390625 C10.00371789 -0.08321676 11.98472685 -0.13643679 13.96484375 -0.1484375 C15.55619141 -0.16970703 15.55619141 -0.16970703 17.1796875 -0.19140625 C20.02734375 0.0390625 20.02734375 0.0390625 23.02734375 2.0390625 C19.10439996 3.34671043 15.62499483 3.01508013 11.5234375 2.87890625 C8.85167897 2.77447467 8.85167897 2.77447467 7.02734375 5.0390625 C5.63515625 4.5440625 5.63515625 4.5440625 4.21484375 4.0390625 C1.10705084 2.88939246 1.10705084 2.88939246 -1.97265625 3.0390625 C-1.97265625 17.8890625 -1.97265625 32.7390625 -1.97265625 48.0390625 C-0.48765625 47.5440625 -0.48765625 47.5440625 1.02734375 47.0390625 C1.35734375 43.4090625 1.68734375 39.7790625 2.02734375 36.0390625 C2.68734375 36.0390625 3.34734375 36.0390625 4.02734375 36.0390625 C4.08121004 38.16378826 4.12007446 40.28889902 4.15234375 42.4140625 C4.17554687 43.59742188 4.19875 44.78078125 4.22265625 46 C4.02734375 49.0390625 4.02734375 49.0390625 2.02734375 51.0390625 C-3.54083807 50.47088068 -3.54083807 50.47088068 -4.97265625 49.0390625 C-5.08115258 47.61264938 -5.12166951 46.18097035 -5.13378906 44.75048828 C-5.14339661 43.8392923 -5.15300415 42.92809631 -5.16290283 41.98928833 C-5.16715271 40.99766693 -5.17140259 40.00604553 -5.17578125 38.984375 C-5.18433136 37.46564285 -5.18433136 37.46564285 -5.1930542 35.91622925 C-5.20252042 33.76919607 -5.20904459 31.62214826 -5.21289062 29.47509766 C-5.2225946 26.18496413 -5.25360235 22.89545544 -5.28515625 19.60546875 C-5.29168606 17.52344123 -5.29693662 15.44140921 -5.30078125 13.359375 C-5.31312805 12.37180206 -5.32547485 11.38422913 -5.3381958 10.36672974 C-5.3351947 9.44922943 -5.3321936 8.53172913 -5.32910156 7.58642578 C-5.33274719 6.77891876 -5.33639282 5.97141174 -5.34014893 5.13943481 C-4.78390664 1.96028058 -3.32161848 0.06577462 0 0 Z " fill="#231B52" transform="translate(99.97265625,59.9609375)"/>
<path d="M0 0 C1.084021 0.04713135 2.16804199 0.0942627 3.28491211 0.14282227 C5.03964844 0.21533203 5.03964844 0.21533203 6.82983398 0.28930664 C8.67738281 0.37341797 8.67738281 0.37341797 10.56225586 0.45922852 C11.79782227 0.51143555 13.03338867 0.56364258 14.30639648 0.61743164 C17.37107777 0.74759185 20.43547199 0.88257197 23.49975586 1.02172852 C25.17064105 4.3634989 24.3568398 8.06260961 24.12475586 11.70922852 C24.08092773 12.50006836 24.03709961 13.2909082 23.99194336 14.10571289 C23.71324807 18.79321281 23.2324303 23.38352675 22.49975586 28.02172852 C19.74975586 29.20922852 19.74975586 29.20922852 16.49975586 30.02172852 C14.28100586 29.08422852 14.28100586 29.08422852 12.49975586 27.02172852 C12.36858045 24.12692562 12.43657533 21.68019447 12.74975586 18.83422852 C12.81549805 18.08463867 12.88124023 17.33504883 12.94897461 16.56274414 C13.11383323 14.71397251 13.30434402 12.86752079 13.49975586 11.02172852 C14.15975586 11.02172852 14.81975586 11.02172852 15.49975586 11.02172852 C15.82975586 13.99172852 16.15975586 16.96172852 16.49975586 20.02172852 C17.81975586 20.02172852 19.13975586 20.02172852 20.49975586 20.02172852 C20.59063477 18.4497168 20.59063477 18.4497168 20.68334961 16.84594727 C20.76777324 15.46702803 20.85242033 14.08812247 20.93725586 12.70922852 C20.97657227 12.01893555 21.01588867 11.32864258 21.05639648 10.61743164 C21.24903001 7.55011317 21.52298303 4.952047 22.49975586 2.02172852 C18.39477377 2.10244571 14.29129477 2.21530339 10.18725586 2.33422852 C9.02000977 2.35678711 7.85276367 2.3793457 6.65014648 2.40258789 C5.53188477 2.43803711 4.41362305 2.47348633 3.26147461 2.51000977 C1.71399536 2.54928589 1.71399536 2.54928589 0.13525391 2.58935547 C-2.79715447 3.07043886 -3.70760337 3.71306522 -5.50024414 6.02172852 C-3.19487365 0.02776523 -3.19487365 0.02776523 0 0 Z " fill="#2AB890" transform="translate(229.500244140625,36.978271484375)"/>
<path d="M0 0 C0.99 0 1.98 0 3 0 C3.33 2.97 3.66 5.94 4 9 C4.99 8.67 5.98 8.34 7 8 C6.86980469 8.556875 6.73960937 9.11375 6.60546875 9.6875 C5.78621974 14.22016744 5.59301501 17.07663245 8.1875 21 C8.64898437 21.639375 9.11046875 22.27875 9.5859375 22.9375 C11.9336833 26.36183641 13.41604901 30.17728029 15 34 C14.01 34.495 14.01 34.495 13 35 C10.03 29.39 7.06 23.78 4 18 C3.96261719 19.84207031 3.92523438 21.68414062 3.88671875 23.58203125 C3.8210719 25.9922083 3.75462413 28.40236364 3.6875 30.8125 C3.66494141 32.02744141 3.64238281 33.24238281 3.61914062 34.49414062 C3.58369141 35.65751953 3.54824219 36.82089844 3.51171875 38.01953125 C3.48553467 39.09307861 3.45935059 40.16662598 3.43237305 41.27270508 C3 44 3 44 1.59301758 45.8737793 C0 47 0 47 -2 47 C-2 46.34 -2 45.68 -2 45 C-1.01 44.505 -1.01 44.505 0 44 C0 29.48 0 14.96 0 0 Z " fill="#241B57" transform="translate(185,52)"/>
<path d="M0 0 C1.4030002 5.28311798 0.52101992 7.91520051 -1.96484375 12.7109375 C-2.27700333 13.32393707 -2.5891629 13.93693665 -2.91078186 14.56851196 C-3.90484096 16.51208232 -4.92061993 18.44328888 -5.9375 20.375 C-6.61800604 21.69585849 -7.29705887 23.01746675 -7.97460938 24.33984375 C-9.63300644 27.56874565 -11.31106913 30.78694293 -13 34 C-13.66 33.67 -14.32 33.34 -15 33 C-15.25 30.75 -15.25 30.75 -15 28 C-13.68870078 26.64499081 -12.35308313 25.31328657 -11 24 C-9.73215876 20.86649283 -9.73215876 20.86649283 -9 18 C-8.34 18 -7.68 18 -7 18 C-6.71125 17.113125 -6.4225 16.22625 -6.125 15.3125 C-5 12 -5 12 -3.8125 9.3125 C-2.69610807 6.89030325 -2.69610807 6.89030325 -4 4 C-4 3.34 -4 2.68 -4 2 C-4.66 2 -5.32 2 -6 2 C-6.433125 3.36125 -6.433125 3.36125 -6.875 4.75 C-7.76531776 7.32202908 -8.71494413 9.61346766 -10 12 C-9.34 12 -8.68 12 -8 12 C-8.33 12.66 -8.66 13.32 -9 14 C-9.66 14 -10.32 14 -11 14 C-12.32 16.31 -13.64 18.62 -15 21 C-15.66 21 -16.32 21 -17 21 C-15.52244652 16.05173494 -13.43580326 11.71050424 -11 7.1875 C-10.64421875 6.50751953 -10.2884375 5.82753906 -9.921875 5.12695312 C-6.99117897 -0.3571665 -6.06002345 -1.43526871 0 0 Z " fill="#241C57" transform="translate(226,61)"/>
<path d="M0 0 C0.66021406 2.56749913 1.1139792 4.48881515 0.53125 7.10229492 C-0.20919787 11.14107054 -0.10268625 15.07924703 -0.0625 19.17578125 C-0.05871338 20.05977097 -0.05492676 20.94376068 -0.05102539 21.85453796 C-0.03474985 25.62110147 -0.00667544 29.38755465 0.02050781 33.15405273 C0.03869634 35.91129037 0.05072729 38.66850991 0.0625 41.42578125 C0.07079834 42.26563065 0.07909668 43.10548004 0.08764648 43.97077942 C0.10861686 49.07562652 -0.26307972 53.94709143 -1 59 C-1.33 59 -1.66 59 -2 59 C-2 40.19 -2 21.38 -2 2 C-3.98 2.33 -5.96 2.66 -8 3 C-8 2.34 -8 1.68 -8 1 C-5.29120665 -0.35439668 -2.99066732 -0.06501451 0 0 Z " fill="#261C5C" transform="translate(80,22)"/>
<path d="M0 0 C0.33 0 0.66 0 1 0 C1.33 14.52 1.66 29.04 2 44 C3.65 44.33 5.3 44.66 7 45 C8.33901792 43.88873341 8.33901792 43.88873341 8.09765625 41.05859375 C8.08605469 39.86363281 8.07445312 38.66867188 8.0625 37.4375 C8.05347656 36.23996094 8.04445312 35.04242188 8.03515625 33.80859375 C8.02355469 32.88175781 8.01195312 31.95492187 8 31 C8.66 30.67 9.32 30.34 10 30 C11.0209375 30.680625 11.0209375 30.680625 12.0625 31.375 C15.53261183 33.29463633 18.20627858 33.4781576 22.109375 33.69140625 C22.73328125 33.79324219 23.3571875 33.89507812 24 34 C24.33 34.66 24.66 35.32 25 36 C23.43789839 36.05459773 21.87522911 36.09306101 20.3125 36.125 C19.00732422 36.15980469 19.00732422 36.15980469 17.67578125 36.1953125 C14.76542306 35.9828776 12.64008871 35.20825682 10 34 C10.03480469 34.75925781 10.06960937 35.51851562 10.10546875 36.30078125 C10.13253906 37.29464844 10.15960938 38.28851563 10.1875 39.3125 C10.22230469 40.29863281 10.25710937 41.28476563 10.29296875 42.30078125 C10 45 10 45 8.6484375 46.8671875 C7 48 7 48 4.4375 47.8125 C2 47 2 47 0 45 C-0.24050903 43.05111694 -0.24050903 43.05111694 -0.22705078 40.64208984 C-0.22689972 39.74130707 -0.22674866 38.84052429 -0.22659302 37.91244507 C-0.21627045 36.93844757 -0.20594788 35.96445007 -0.1953125 34.9609375 C-0.1924826 33.96494537 -0.18965271 32.96895325 -0.18673706 31.94277954 C-0.1755184 28.75339882 -0.15041081 25.56429622 -0.125 22.375 C-0.11497238 20.21614988 -0.10584615 18.05729537 -0.09765625 15.8984375 C-0.07557361 10.59886301 -0.04207958 5.29945137 0 0 Z " fill="#252050" transform="translate(137,63)"/>
<path d="M0 0 C3 1 3 1 4.6875 4 C6.37320591 8.26280604 6.47950854 12.47233284 6 17 C5.67 17.66 5.34 18.32 5 19 C4.01 19.33 3.02 19.66 2 20 C0.31461399 21.99665314 0.31461399 21.99665314 -1 24 C-0.90460938 23.02417969 -0.80921875 22.04835938 -0.7109375 21.04296875 C-0.60007813 19.77066406 -0.48921875 18.49835938 -0.375 17.1875 C-0.25898438 15.92292969 -0.14296875 14.65835938 -0.0234375 13.35546875 C0.31441804 9.86442059 0.31441804 9.86442059 -2 7 C-2.25 4.4375 -2.25 4.4375 -2 2 C-1.34 1.34 -0.68 0.68 0 0 Z " fill="#2C236C" transform="translate(167,65)"/>
<path d="M0 0 C8.07764585 0.01636808 15.99395661 0.33784834 24.04296875 1.1328125 C24.04296875 4.7628125 24.04296875 8.3928125 24.04296875 12.1328125 C23.71296875 12.1328125 23.38296875 12.1328125 23.04296875 12.1328125 C22.71296875 9.1628125 22.38296875 6.1928125 22.04296875 3.1328125 C21.32753906 3.14441406 20.61210937 3.15601563 19.875 3.16796875 C12.21401303 3.23734379 4.67148429 2.82183971 -2.95703125 2.1328125 C-2.95703125 3.7828125 -2.95703125 5.4328125 -2.95703125 7.1328125 C1.99296875 7.1328125 6.94296875 7.1328125 12.04296875 7.1328125 C12.37296875 8.1228125 12.70296875 9.1128125 13.04296875 10.1328125 C10.6048029 10.2137848 8.16932491 10.27328222 5.73046875 10.3203125 C4.6950293 10.35801758 4.6950293 10.35801758 3.63867188 10.39648438 C-1.44549233 10.47016791 -1.44549233 10.47016791 -3.953125 8.81640625 C-4.95703125 7.1328125 -4.95703125 7.1328125 -4.70703125 4.0078125 C-3.70492455 0.16640348 -3.70492455 0.16640348 0 0 Z " fill="#B972CE" transform="translate(246.95703125,19.8671875)"/>
<path d="M0 0 C0.99 0.33 1.98 0.66 3 1 C2.01 1.66 1.02 2.32 0 3 C-0.43661626 5.01337365 -0.43661626 5.01337365 -0.34057617 7.35791016 C-0.34034958 8.25869293 -0.34012299 9.15947571 -0.33988953 10.08755493 C-0.32440567 11.06155243 -0.30892181 12.03554993 -0.29296875 13.0390625 C-0.28872391 14.03505463 -0.28447906 15.03104675 -0.28010559 16.05722046 C-0.2632768 19.24675225 -0.22561676 22.43565833 -0.1875 25.625 C-0.1724586 27.78384506 -0.15876925 29.9427 -0.14648438 32.1015625 C-0.11335967 37.40125612 -0.06311896 42.70058337 0 48 C-0.99 47.67 -1.98 47.34 -3 47 C-3.07589394 40.62800706 -3.1285335 34.25613009 -3.16479492 27.88378906 C-3.179907 25.71479944 -3.20039735 23.5458405 -3.22631836 21.37695312 C-3.26259534 18.26424604 -3.2797019 15.15194195 -3.29296875 12.0390625 C-3.30845261 11.065065 -3.32393646 10.0910675 -3.33988953 9.08755493 C-3.34011612 8.18677216 -3.34034271 7.28598938 -3.34057617 6.35791016 C-3.34723801 5.56293121 -3.35389984 4.76795227 -3.36076355 3.94888306 C-3.24171158 3.30575165 -3.12265961 2.66262024 -3 2 C-2.01 1.34 -1.02 0.68 0 0 Z " fill="#271F52" transform="translate(182,50)"/>
<path d="M0 0 C1.98 0.66 3.96 1.32 6 2 C6.05437607 3.58294782 6.09296271 5.16644256 6.125 6.75 C6.14820313 7.63171875 6.17140625 8.5134375 6.1953125 9.421875 C5.99139502 12.1135858 5.36551721 13.69904974 4 16 C2.35 15.67 0.7 15.34 -1 15 C-1.125 11.625 -1.125 11.625 -1 8 C-0.34 7.34 0.32 6.68 1 6 C-0.32 5.34 -1.64 4.68 -3 4 C-2.01 4 -1.02 4 0 4 C0 2.68 0 1.36 0 0 Z " fill="#CC6AE5" transform="translate(263,31)"/>
<path d="M0 0 C2.12472576 -0.05386629 4.24983652 -0.09273071 6.375 -0.125 C7.55835938 -0.14820312 8.74171875 -0.17140625 9.9609375 -0.1953125 C13 0 13 0 15 2 C14.625 4.125 14.625 4.125 14 6 C12.22925083 6.02705729 10.45838289 6.04642195 8.6875 6.0625 C7.70136719 6.07410156 6.71523437 6.08570313 5.69921875 6.09765625 C3 6 3 6 0 5 C0 3.35 0 1.7 0 0 Z " fill="#CB6CE7" transform="translate(244,22)"/>
<path d="M0 0 C2.33210837 2.13776601 3.75375139 4.14845443 5.15625 6.9765625 C5.53910156 7.729375 5.92195312 8.4821875 6.31640625 9.2578125 C7.10859529 10.84219058 7.89763623 12.42814645 8.68359375 14.015625 C9.06644531 14.76585938 9.44929687 15.51609375 9.84375 16.2890625 C10.18599609 16.97693848 10.52824219 17.66481445 10.88085938 18.37353516 C11.98659401 20.3301355 11.98659401 20.3301355 15 21 C15 21.66 15 22.32 15 23 C13.35 23.66 11.7 24.32 10 25 C9.67 24.34 9.34 23.68 9 23 C9.33 22.01 9.66 21.02 10 20 C7.525 19.01 7.525 19.01 5 18 C4.87625 16.515 4.87625 16.515 4.75 15 C4.22373053 11.13545408 2.73674653 8.17214685 0.83984375 4.796875 C0 3 0 3 0 0 Z " fill="#251D59" transform="translate(195,62)"/>
<path d="M0 0 C7.74468085 0.74468085 7.74468085 0.74468085 11 4 C11.33 4.99 11.66 5.98 12 7 C12.66 7.66 13.32 8.32 14 9 C13.6875 12.3125 13.6875 12.3125 13 16 C12.835 16.9075 12.67 17.815 12.5 18.75 C12 21 12 21 11 24 C8.4375 25.1875 8.4375 25.1875 6 26 C5.67 25.34 5.34 24.68 5 24 C5.639375 23.38125 6.27875 22.7625 6.9375 22.125 C9.7472629 19.23009277 10.1706838 17.6202617 10.25 13.6875 C10.17177677 9.63292916 9.93182438 7.0234439 7 4 C4.32112904 2.99608386 1.83918869 2.51198485 -1 2 C-0.67 1.34 -0.34 0.68 0 0 Z " fill="#241C55" transform="translate(112,66)"/>
<path d="M0 0 C2.14255793 -0.38932856 2.14255793 -0.38932856 4 -1 C4.1875 1.375 4.1875 1.375 4 4 C0.48886112 6.34075925 -1.8195491 6.70663502 -6 7 C-8.4375 6.0625 -8.4375 6.0625 -10 5 C-7.30888151 0.96332227 -4.89232235 -1.63077412 0 0 Z " fill="#2D246A" transform="translate(119,91)"/>
<path d="M0 0 C3.05402088 1.52701044 3.65869481 3.95157912 5 7 C5 7.99 5 8.98 5 10 C2.5 11.6875 2.5 11.6875 0 13 C-1.32 11.68 -2.64 10.36 -4 9 C-1.125 2.25 -1.125 2.25 0 0 Z " fill="#2D2369" transform="translate(126,79)"/>
<path d="M0 0 C0.33 0 0.66 0 1 0 C1.05406122 1.93719378 1.09282025 3.87481921 1.125 5.8125 C1.14820313 6.89144531 1.17140625 7.97039063 1.1953125 9.08203125 C1 12 1 12 -1 15 C-4 15.3125 -4 15.3125 -7 15 C-9 13 -9 13 -9.1953125 10.3984375 C-9.17210937 9.40070312 -9.14890625 8.40296875 -9.125 7.375 C-9.10695313 6.37210938 -9.08890625 5.36921875 -9.0703125 4.3359375 C-9.04710937 3.56507812 -9.02390625 2.79421875 -9 2 C-7.35 2 -5.7 2 -4 2 C-4.99 3.485 -4.99 3.485 -6 5 C-6.07905064 7.33199388 -6.08798769 9.66832622 -6 12 C-4.68 12 -3.36 12 -2 12 C-1.34 8.04 -0.68 4.08 0 0 Z " fill="#B473C8" transform="translate(269,34)"/>
<path d="M0 0 C0.66 0 1.32 0 2 0 C0.48018437 5.38843723 -1.74134724 10.43603463 -5 15 C-7.8125 16.5625 -7.8125 16.5625 -10 17 C-11.32 15.68 -12.64 14.36 -14 13 C-13.34 11.68 -12.68 10.36 -12 9 C-11.01 10.32 -10.02 11.64 -9 13 C-7.0351761 12.4818964 -7.0351761 12.4818964 -5 11 C-3.31609415 7.6265242 -3.31609415 7.6265242 -2 4 C-1.34711373 2.65986503 -0.68774405 1.32258472 0 0 Z " fill="#251D53" transform="translate(210,95)"/>
<path d="M0 0 C4.52346473 2.26173236 5.05828666 3.53405933 7 8 C5.35 8 3.7 8 2 8 C1.67 7.34 1.34 6.68 1 6 C0.34 5.67 -0.32 5.34 -1 5 C-2.98 7.97 -4.96 10.94 -7 14 C-7.66 13.67 -8.32 13.34 -9 13 C-6.03 8.71 -3.06 4.42 0 0 Z " fill="#282159" transform="translate(82,0)"/>
<path d="M0 0 C0.66 0 1.32 0 2 0 C0.09659503 4.44127825 -2.35501321 7.2556205 -6.796875 9.265625 C-7.77140625 9.59046875 -8.7459375 9.9153125 -9.75 10.25 C-10.73484375 10.58515625 -11.7196875 10.9203125 -12.734375 11.265625 C-13.48203125 11.50796875 -14.2296875 11.7503125 -15 12 C-15 11.01 -15 10.02 -15 9 C-15.66 9 -16.32 9 -17 9 C-17 8.34 -17 7.68 -17 7 C-16.26394531 6.97421875 -15.52789062 6.9484375 -14.76953125 6.921875 C-7.05581837 6.5307505 -7.05581837 6.5307505 -1 2 C-0.67 1.34 -0.34 0.68 0 0 Z " fill="#241C57" transform="translate(77,83)"/>
<path d="M0 0 C0.66 0.33 1.32 0.66 2 1 C0.50163895 4.11198065 -1.19933758 7.0534615 -3 10 C-2.01 10.33 -1.02 10.66 0 11 C-2.6855594 13.6855594 -5.37621328 14.06049974 -9 15 C-7.61219205 11.10993227 -5.7847773 8.03441292 -3.375 4.6875 C-2.74335937 3.80449219 -2.11171875 2.92148437 -1.4609375 2.01171875 C-0.97882813 1.34785156 -0.49671875 0.68398437 0 0 Z " fill="#241C51" transform="translate(72,14)"/>
<path d="M0 0 C3.83412335 1.50626274 5.72845467 3.59268201 8 7 C9.6233137 11.46411266 10.23113244 15.26178489 10 20 C7.69267256 17.48291552 6.72951261 15.3329421 6 12.0625 C5.21963683 8.57687784 4.1273778 5.92514448 2 3 C1.34 2.67 0.68 2.34 0 2 C0 1.34 0 0.68 0 0 Z " fill="#231D54" transform="translate(123,62)"/>
<path d="M0 0 C0.66 0 1.32 0 2 0 C1.68328719 5.22576133 -1.21065608 8.63673063 -5 12 C-7.875 12.9375 -7.875 12.9375 -10 13 C-8.35895684 11.35895684 -6.72048787 9.74669214 -5 8.1875 C-2.69397151 5.66528134 -1.40828698 3.09823137 0 0 Z " fill="#221B52" transform="translate(172,85)"/>
<path d="M0 0 C0.33 0.66 0.66 1.32 1 2 C-0.6875 4.5 -0.6875 4.5 -3 7 C-5.75 7.3125 -5.75 7.3125 -8 7 C-7.34 5.02 -6.68 3.04 -6 1 C-5.38125 1.20625 -4.7625 1.4125 -4.125 1.625 C-3.073125 1.810625 -3.073125 1.810625 -2 2 C-1.34 1.34 -0.68 0.68 0 0 Z " fill="#241D5E" transform="translate(129,89)"/>
<path d="M0 0 C2.97 1.98 2.97 1.98 6 4 C5.34 6.31 4.68 8.62 4 11 C2.68 10.67 1.36 10.34 0 10 C0.185625 9.0925 0.37125 8.185 0.5625 7.25 C0.95734621 4.31685676 0.94691572 2.7355343 0 0 Z " fill="#281F5C" transform="translate(54,85)"/>
<path d="M0 0 C1.65 0 3.3 0 5 0 C4.01 1.485 4.01 1.485 3 3 C2.75944532 5.05709596 2.75944532 5.05709596 2.875 7.1875 C2.91625 8.445625 2.9575 9.70375 3 11 C2.01 11 1.02 11 0 11 C0 7.37 0 3.74 0 0 Z " fill="#BB74D7" transform="translate(260,36)"/>
<path d="M0 0 C0.99 0.33 1.98 0.66 3 1 C2.195625 1.45375 1.39125 1.9075 0.5625 2.375 C-3.14001998 6.16782534 -2.89236503 9.87266134 -3 15 C-3.66 14.67 -4.32 14.34 -5 14 C-5.4390692 5.36497244 -5.4390692 5.36497244 -2 1 C-1.34 0.67 -0.68 0.34 0 0 Z " fill="#261D54" transform="translate(150,67)"/>
<path d="M0 0 C0.99 0.33 1.98 0.66 3 1 C2.45660208 5.56454251 1.20536179 8.9728176 -1 13 C-1.66 13 -2.32 13 -3 13 C-2.690625 12.154375 -2.38125 11.30875 -2.0625 10.4375 C-0.98461179 6.9502146 -0.43418696 3.61822465 0 0 Z " fill="#241C56" transform="translate(201,91)"/>
<path d="M0 0 C0 3.63195496 -0.95453155 4.74713911 -3 7.6875 C-3.556875 8.49574219 -4.11375 9.30398438 -4.6875 10.13671875 C-5.120625 10.75160156 -5.55375 11.36648438 -6 12 C-6.66 11.67 -7.32 11.34 -8 11 C-5.36 7.37 -2.72 3.74 0 0 Z " fill="#241C51" transform="translate(81,2)"/>
<path d="M0 0 C0 0.99 0 1.98 0 3 C-2.97 3 -5.94 3 -9 3 C-8.67 2.34 -8.34 1.68 -8 1 C-5.2303041 0.27113266 -2.87137415 0 0 0 Z " fill="#2AC096" transform="translate(242,45)"/>
<path d="" fill="#000000" transform="translate(0,0)"/>
<path d="" fill="#000000" transform="translate(0,0)"/>
<path d="" fill="#000000" transform="translate(0,0)"/>
</svg>
