<?xml version="1.0" encoding="UTF-8"?>
<svg version="1.1" xmlns="http://www.w3.org/2000/svg" width="284" height="134">
<path d="M0 0 C-0.08071719 4.10498209 -0.19357487 8.20846109 -0.3125 12.3125 C-0.33505859 13.47974609 -0.35761719 14.64699219 -0.38085938 15.84960938 C-0.41630859 16.96787109 -0.45175781 18.08613281 -0.48828125 19.23828125 C-0.51446533 20.26993408 -0.54064941 21.30158691 -0.56762695 22.36450195 C-1 25 -1 25 -2.33666992 26.87573242 C-4 28 -4 28 -7.125 27.75 C-10 27 -10 27 -11 26 C-11.42564759 20.27879563 -10.82264831 14.65570712 -10 9 C-11.12019531 9.03480469 -12.24039062 9.06960937 -13.39453125 9.10546875 C-14.86717251 9.13360839 -16.33982998 9.16090837 -17.8125 9.1875 C-18.91948242 9.22520508 -18.91948242 9.22520508 -20.04882812 9.26367188 C-25.48135958 9.33741665 -25.48135958 9.33741665 -28.0234375 7.68359375 C-29 6 -29 6 -28.8125 2.875 C-28.544375 1.92625 -28.27625 0.9775 -28 0 C-20.61636232 -3.69181884 -7.96753041 -0.66003211 0 0 Z " fill="#CB6FE5" transform="translate(271,21)"/>
<path d="M0 0 C1.67739258 0.07734375 1.67739258 0.07734375 3.38867188 0.15625 C4.55591797 0.22070312 5.72316406 0.28515625 6.92578125 0.3515625 C8.10462891 0.40828125 9.28347656 0.465 10.49804688 0.5234375 C13.41206477 0.66500922 16.32523382 0.81643192 19.23828125 0.9765625 C19.46822658 21.56944435 19.46822658 21.56944435 18.23828125 26.9765625 C16.23828125 28.9765625 16.23828125 28.9765625 13.23828125 29.2265625 C10.23828125 28.9765625 10.23828125 28.9765625 8.23828125 26.9765625 C8.25576052 24.22066473 8.37691396 21.58869574 8.61328125 18.8515625 C8.67 18.09746094 8.72671875 17.34335937 8.78515625 16.56640625 C8.92672775 14.70238154 9.08128084 12.83935113 9.23828125 10.9765625 C8.10648438 10.92757812 6.9746875 10.87859375 5.80859375 10.828125 C4.32679786 10.75309736 2.84502825 10.67754953 1.36328125 10.6015625 C0.61691406 10.570625 -0.12945312 10.5396875 -0.8984375 10.5078125 C-6.53515625 10.203125 -6.53515625 10.203125 -8.76171875 7.9765625 C-9.07421875 4.9765625 -9.07421875 4.9765625 -8.76171875 1.9765625 C-5.25886001 -0.35867666 -4.10541937 -0.20839692 0 0 Z " fill="#24CA9A" transform="translate(233.76171875,37.0234375)"/>
<path d="M0 0 C0.95310059 0.01047363 1.90620117 0.02094727 2.88818359 0.03173828 C4.43505859 0.04140625 4.43505859 0.04140625 6.01318359 0.05126953 C7.63353516 0.07640625 7.63353516 0.07640625 9.28662109 0.10205078 C10.37458984 0.11107422 11.46255859 0.12009766 12.58349609 0.12939453 C15.27642261 0.15301669 17.96891365 0.18595522 20.66162109 0.22705078 C20.66162109 3.19705078 20.66162109 6.16705078 20.66162109 9.22705078 C19.67162109 9.22705078 18.68162109 9.22705078 17.66162109 9.22705078 C17.33162109 8.56705078 17.00162109 7.90705078 16.66162109 7.22705078 C16.33162109 7.88705078 16.00162109 8.54705078 15.66162109 9.22705078 C15.00162109 9.22705078 14.34162109 9.22705078 13.66162109 9.22705078 C14.15662109 17.64205078 14.15662109 17.64205078 14.66162109 26.22705078 C14.00162109 26.22705078 13.34162109 26.22705078 12.66162109 26.22705078 C12.66162109 19.95705078 12.66162109 13.68705078 12.66162109 7.22705078 C7.38162109 7.22705078 2.10162109 7.22705078 -3.33837891 7.22705078 C-3.66837891 5.57705078 -3.99837891 3.92705078 -4.33837891 2.22705078 C-2.33837891 0.22705078 -2.33837891 0.22705078 0 0 Z " fill="#1BC694" transform="translate(231.33837890625,38.77294921875)"/>
<path d="M0 0 C0 2.97 0 5.94 0 9 C-0.33 9 -0.66 9 -1 9 C-1 6.36 -1 3.72 -1 1 C-13.375 1.495 -13.375 1.495 -26 2 C-26.33 3.32 -26.66 4.64 -27 6 C-25.06833984 6.09087891 -25.06833984 6.09087891 -23.09765625 6.18359375 C-21.41925841 6.26798247 -19.74087364 6.3526313 -18.0625 6.4375 C-17.21236328 6.47681641 -16.36222656 6.51613281 -15.48632812 6.55664062 C-14.27299805 6.61948242 -14.27299805 6.61948242 -13.03515625 6.68359375 C-12.2862915 6.72025146 -11.53742676 6.75690918 -10.76586914 6.79467773 C-9 7 -9 7 -8 8 C-7.92773498 9.85287502 -7.9161878 11.70833878 -7.9375 13.5625 C-7.94652344 14.57441406 -7.95554687 15.58632813 -7.96484375 16.62890625 C-7.97644531 17.41136719 -7.98804688 18.19382812 -8 19 C-8.66 19 -9.32 19 -10 19 C-10 20.98 -10 22.96 -10 25 C-8.68 24.01 -7.36 23.02 -6 22 C-4 23.375 -4 23.375 -2 25 C-2 25.66 -2 26.32 -2 27 C-4.8125 27.625 -4.8125 27.625 -8 28 C-8.99 27.34 -9.98 26.68 -11 26 C-11.328125 24.1171875 -11.328125 24.1171875 -11.25 21.875 C-11.22421875 21.07964844 -11.1984375 20.28429687 -11.171875 19.46484375 C-10.92657077 15.94695804 -10.50761754 12.48987058 -10 9 C-11.12019531 9.03480469 -12.24039062 9.06960937 -13.39453125 9.10546875 C-14.86717251 9.13360839 -16.33982998 9.16090837 -17.8125 9.1875 C-18.91948242 9.22520508 -18.91948242 9.22520508 -20.04882812 9.26367188 C-25.48135958 9.33741665 -25.48135958 9.33741665 -28.0234375 7.68359375 C-29 6 -29 6 -28.8125 2.875 C-28.544375 1.92625 -28.27625 0.9775 -28 0 C-20.61636232 -3.69181884 -7.96753041 -0.66003211 0 0 Z " fill="#D197E3" transform="translate(271,21)"/>
<path d="M0 0 C1.67739258 0.07734375 1.67739258 0.07734375 3.38867188 0.15625 C4.55591797 0.22070312 5.72316406 0.28515625 6.92578125 0.3515625 C8.10462891 0.40828125 9.28347656 0.465 10.49804688 0.5234375 C13.41193417 0.66500287 16.32518512 0.81955659 19.23828125 0.9765625 C19.23828125 6.2565625 19.23828125 11.5365625 19.23828125 16.9765625 C18.90828125 16.9765625 18.57828125 16.9765625 18.23828125 16.9765625 C18.23828125 12.0265625 18.23828125 7.0765625 18.23828125 1.9765625 C10.64828125 2.3065625 3.05828125 2.6365625 -4.76171875 2.9765625 C-5.09171875 4.6265625 -5.42171875 6.2765625 -5.76171875 7.9765625 C-0.48171875 8.3065625 4.79828125 8.6365625 10.23828125 8.9765625 C10.23828125 15.2465625 10.23828125 21.5165625 10.23828125 27.9765625 C9.57828125 27.6465625 8.91828125 27.3165625 8.23828125 26.9765625 C8.56828125 21.6965625 8.89828125 16.4165625 9.23828125 10.9765625 C4.06320581 10.72720059 4.06320581 10.72720059 -1.11279297 10.49853516 C-6.53949653 10.19878472 -6.53949653 10.19878472 -8.76171875 7.9765625 C-9.07421875 4.9765625 -9.07421875 4.9765625 -8.76171875 1.9765625 C-5.25886001 -0.35867666 -4.10541937 -0.20839692 0 0 Z " fill="#6AD1B5" transform="translate(233.76171875,37.0234375)"/>
<path d="M0 0 C1.12148437 0.04833984 2.24296875 0.09667969 3.3984375 0.14648438 C5.161875 0.2305957 5.161875 0.2305957 6.9609375 0.31640625 C8.73597656 0.3947168 8.73597656 0.3947168 10.546875 0.47460938 C13.47677981 0.60456483 16.40639051 0.74112003 19.3359375 0.87890625 C19.3359375 6.15890625 19.3359375 11.43890625 19.3359375 16.87890625 C19.0059375 16.87890625 18.6759375 16.87890625 18.3359375 16.87890625 C18.3359375 11.92890625 18.3359375 6.97890625 18.3359375 1.87890625 C14.54399267 2.01923807 10.75248072 2.16591253 6.9609375 2.31640625 C5.88070312 2.35572266 4.80046875 2.39503906 3.6875 2.43554688 C2.65625 2.47744141 1.625 2.51933594 0.5625 2.5625 C-0.39060059 2.59915771 -1.34370117 2.63581543 -2.32568359 2.67358398 C-4.68538599 2.7365409 -4.68538599 2.7365409 -6.6640625 3.87890625 C-6.9940625 2.88890625 -7.3240625 1.89890625 -7.6640625 0.87890625 C-4.96635992 -0.46994504 -3.01132875 -0.13687858 0 0 Z " fill="#7EDFC3" transform="translate(233.6640625,37.12109375)"/>
<path d="M0 0 C0.33 0 0.66 0 1 0 C1.09688221 5.44693314 1.12862175 10.63904667 0 16 C1.32 15.01 2.64 14.02 4 13 C6 14.375 6 14.375 8 16 C8 16.66 8 17.32 8 18 C5.1875 18.625 5.1875 18.625 2 19 C1.01 18.34 0.02 17.68 -1 17 C-1.328125 15.1171875 -1.328125 15.1171875 -1.25 12.875 C-1.22421875 12.07964844 -1.1984375 11.28429687 -1.171875 10.46484375 C-0.92657077 6.94695804 -0.50761754 3.48987058 0 0 Z " fill="#D195E2" transform="translate(261,30)"/>
<path d="M0 0 C4.95 0 9.9 0 15 0 C15 2.64 15 5.28 15 8 C14.67 8 14.34 8 14 8 C14 5.69 14 3.38 14 1 C10.37 1 6.74 1 3 1 C3 1.99 3 2.98 3 4 C0.36 4 -2.28 4 -5 4 C-4.67 3.34 -4.34 2.68 -4 2 C-2.68 2 -1.36 2 0 2 C0 1.34 0 0.68 0 0 Z " fill="#C36FD7" transform="translate(255,22)"/>
</svg>
